<svg width="128" height="128" viewBox="0 0 128 128" fill="none" xmlns="http://www.w3.org/2000/svg">
  <rect x="4" y="4" width="120" height="120" rx="22" fill="#050505"/>
  <path d="M37 90.5C36.7 82.9 39.1 75.3 43.8 69.3C48.1 63.8 54.2 59.7 61 57.8C58.7 46.8 61.2 35.1 68.8 27.2C75.3 20.4 84.5 17 93.8 18C102.3 18.9 110.4 23.3 115.5 30.1C120.7 36.9 122.7 45.6 121.2 54C119.4 64.1 120.1 74.2 123.5 83.8C126.2 91.5 123.8 100 117.6 105.3C111.4 110.7 102.7 112 95.2 108.8C86.2 105 76.4 103.1 66.6 103.4C61.7 103.6 56.8 102.8 52.2 101.1C43.5 97.8 37.4 95.3 37 90.5Z" fill="white"/>
  <path d="M27 67.7C33.8 62.1 42.8 60.1 51.2 62.2C56 63.4 60.2 66 63.5 69.6C64.7 70.9 64.3 73 62.7 73.8L28.7 89.9C27.6 90.4 26.3 89.5 26.4 88.2L27 67.7Z" fill="white"/>
  <path d="M31.7 68.1L59.7 75.1C61.4 75.5 61.7 77.9 60.2 78.8L26.5 98.1" stroke="#050505" stroke-width="4.8" stroke-linecap="round" stroke-linejoin="round"/>
  <circle cx="74.5" cy="49.5" r="7.8" fill="#050505"/>
</svg>
